# xmcd CD database file
#
# Track frame offsets:
#	150
#	26975
#	61637
#	94572
#	105617
#	122315
#	134392
#	157010
#	200065
#
# Disc length: 2995 seconds
#
# Revision: 0
# Processed by: cddbd v1.5.1PL2 Copyright (c) Steve Scherf et al.
# Submitted via: CDex 1.51
#
DISCID=730bb109
DTITLE=Derrick Graves and Friends - Altered Natives
DYEAR=2006
DGENRE=Jazz
TTITLE0=Progress
TTITLE1=Altered Natives
TTITLE2=Spanish Rice
TTITLE3=Interlude
TTITLE4=Pay Day
TTITLE5=palm Reader
TTITLE6=bag ladies
TTITLE7=Peace of the Rock
TTITLE8=Bass Metaphor
EXTD=YEAR: 2006
EXTT0=
EXTT1=
EXTT2=
EXTT3=
EXTT4=
EXTT5=
EXTT6=
EXTT7=
EXTT8=
PLAYORDER=
